<?xml version="1.0" standalone="no"?>
<!DOCTYPE svg PUBLIC "-//W3C//DTD SVG 20010904//EN"
 "http://www.w3.org/TR/2001/REC-SVG-20010904/DTD/svg10.dtd">
<svg version="1.0" xmlns="http://www.w3.org/2000/svg"
 width="290.000000pt" height="290.000000pt" viewBox="0 0 290.000000 290.000000"
 preserveAspectRatio="xMidYMid meet">
<metadata>
Created by potrace 1.11, written by Peter Selinger 2001-2013
</metadata>
<g transform="translate(0.000000,290.000000) scale(0.100000,-0.100000)"
fill="#000000" stroke="none">
<path d="M1390 2800 c-19 -19 -20 -33 -20 -509 l0 -489 -47 -6 c-295 -42 -556
-235 -678 -501 -32 -70 -75 -232 -75 -284 -1 -34 -6 -40 -92 -101 -106 -76
-223 -196 -257 -265 -73 -146 -10 -261 169 -307 62 -16 254 -22 345 -10 l60 8
50 -45 c105 -93 232 -163 368 -202 92 -26 282 -33 382 -14 317 62 573 289 668
591 22 71 29 103 42 213 2 19 8 37 12 41 4 4 37 29 73 56 115 87 199 185 233
272 47 120 -12 219 -158 265 -61 19 -92 22 -235 21 -91 -1 -167 2 -170 6 -3 3
-35 31 -71 62 -82 69 -171 119 -269 152 -75 25 -95 30 -176 42 l-43 6 0 204
-1 204 233 1 c205 1 293 3 320 8 4 0 14 15 21 33 12 29 11 37 -21 107 -20 42
-43 95 -53 117 l-18 41 49 107 c54 118 59 146 29 176 -19 19 -33 20 -335 20
-302 0 -316 -1 -335 -20z m1041 -1417 c72 -24 89 -53 63 -108 -39 -84 -212
-230 -402 -342 -290 -170 -647 -313 -1052 -418 -147 -38 -317 -60 -470 -59
-232 0 -290 43 -211 158 30 43 111 123 172 169 41 31 45 32 46 15 3 -57 55
-221 82 -256 16 -22 17 -22 111 -7 52 8 115 20 140 25 25 6 54 12 65 14 209
40 639 196 890 323 163 83 398 231 408 257 6 15 -39 131 -76 197 -15 26 -24
49 -22 51 12 12 206 -2 256 -19z"/>
<path d="M803 2508 c-6 -7 -23 -36 -39 -65 -30 -54 -39 -60 -114 -69 -68 -9
-70 -18 -16 -73 51 -52 56 -67 42 -149 -4 -23 -4 -47 -1 -52 4 -6 31 3 65 20
33 17 65 30 72 30 7 0 39 -14 71 -30 72 -39 74 -35 56 77 -5 33 7 61 47 103
25 27 43 53 40 58 -3 5 -29 12 -57 15 -69 8 -91 25 -122 91 -15 31 -28 56 -31
56 -2 0 -8 -6 -13 -12z"/>
<path d="M2370 2038 c-1 -26 -36 -57 -70 -63 -19 -3 -36 -8 -38 -10 -2 -2 8
-15 24 -30 23 -21 27 -33 26 -70 -1 -25 0 -45 2 -45 2 0 17 7 32 15 36 19 54
18 78 0 31 -24 38 -18 33 26 -4 35 0 46 25 75 29 32 29 34 9 34 -34 0 -76 26
-89 54 -12 27 -32 35 -32 14z"/>
<path d="M340 1870 c-16 -38 -46 -60 -82 -60 -40 0 -43 -17 -9 -52 29 -29 31
-36 26 -80 -6 -52 3 -60 39 -33 25 19 63 19 96 0 39 -22 43 -18 37 30 -6 40
-3 48 23 79 38 42 38 56 1 56 -45 0 -60 9 -82 51 -23 47 -33 49 -49 9z"/>
</g>
</svg>
